<?xml version="1.0" standalone="yes"?>
<svg xmlns="http://www.w3.org/2000/svg" width="268" height="268">
<path style="fill:#ffffff; stroke:none;" d="M0 0L0 117L1 117C2.14954 61.3059 61.306 2.14975 117 1L81 0L0 0z"/>
<path style="fill:#1313c5; stroke:none;" d="M117 0.425171C97.5109 3.07803 78.763 9.42014 62 19.814C47.5977 28.7442 35.4992 40.4941 25.375 54C16.538 65.7887 10.2235 79.0289 5.66975 93C-24.2617 184.831 54.5938 279.125 150 267.715C169.02 265.44 187.535 259.211 204 249.396C218.837 240.551 231.487 228.737 241.87 215C299.736 138.443 257.171 24.0031 164 2.65125C149.283 -0.721375 131.999 -1.61658 117 0.425171z"/>
<path style="fill:#ffffff; stroke:none;" d="M151 0L151 1C206.694 2.14975 265.85 61.3058 267 117L268 117L268 0L151 0z"/>
<path style="fill:#4a4ad2; stroke:none;" d="M163 49L164 50L163 49z"/>
<path style="fill:#c2c2f0; stroke:none;" d="M164 49L165 50L164 49z"/>
<path style="fill:#4a4ad2; stroke:none;" d="M165 49L166 50L165 49z"/>
<path style="fill:#8585e2; stroke:none;" d="M163 50L164 51L163 50z"/>
<path style="fill:#ffffff; stroke:none;" d="M164 50L164.603 65.6096L173.941 77.0008L174 139L174.603 163.787L190 173L190 95C190 86.8284 192.979 71.3315 188.972 64.1049C185.471 57.7896 170.715 51.9345 164 50z"/>
<path style="fill:#c2c2f0; stroke:none;" d="M166 50L167 51L166 50M163 51L163 66L164 66L163 51z"/>
<path style="fill:#8585e2; stroke:none;" d="M168 51L169 52L168 51M170 52L171 53L170 52M172 53L173 54L172 53z"/>
<path style="fill:#4a4ad2; stroke:none;" d="M174 54L175 55L174 54z"/>
<path style="fill:#c2c2f0; stroke:none;" d="M175 55L176 56L175 55z"/>
<path style="fill:#4a4ad2; stroke:none;" d="M176 55L177 56L176 55z"/>
<path style="fill:#c2c2f0; stroke:none;" d="M177 56L178 57L177 56z"/>
<path style="fill:#4a4ad2; stroke:none;" d="M178 56L179 57L178 56z"/>
<path style="fill:#c2c2f0; stroke:none;" d="M179 57L180 58L179 57z"/>
<path style="fill:#4a4ad2; stroke:none;" d="M180 57L181 58L180 57z"/>
<path style="fill:#8585e2; stroke:none;" d="M181 58L182 59L181 58M183 59L184 60L183 59M185 60L186 61L185 60M187 61L188 62L187 61z"/>
<path style="fill:#c2c2f0; stroke:none;" d="M188 62L189 63L188 62M189 63L190 64L189 63z"/>
<path style="fill:#4a4ad2; stroke:none;" d="M190 64L190 173L191 173L191 97L190 64M163 66L164 67L163 66z"/>
<path style="fill:#8585e2; stroke:none;" d="M165 67L166 68L165 67M167 68L168 69L167 68M169 69L170 70L169 69M171 70L172 71L171 70z"/>
<path style="fill:#4a4ad2; stroke:none;" d="M172 71L173 72L172 71M120 72L121 73L120 72z"/>
<path style="fill:#ffffff; stroke:none;" d="M121 72L122.028 88.6096L131.891 100.001L132 163L133.028 187.621L147 196L147 117C147 109.362 150.114 92.9125 145.972 86.3897C142.008 80.1465 127.671 74.8748 121 72z"/>
<path style="fill:#8585e2; stroke:none;" d="M122 72L123 73L122 72M173 72L174 73L173 72M120 73L120 89L121 89L120 73M124 73L125 74L124 73z"/>
<path style="fill:#4a4ad2; stroke:none;" d="M126 74L127 75L126 74z"/>
<path style="fill:#c2c2f0; stroke:none;" d="M127 75L128 76L127 75z"/>
<path style="fill:#4a4ad2; stroke:none;" d="M128 75L129 76L128 75z"/>
<path style="fill:#c2c2f0; stroke:none;" d="M129 76L130 77L129 76z"/>
<path style="fill:#4a4ad2; stroke:none;" d="M130 76L131 77L130 76z"/>
<path style="fill:#c2c2f0; stroke:none;" d="M131 77L132 78L131 77z"/>
<path style="fill:#4a4ad2; stroke:none;" d="M132 77L133 78L132 77z"/>
<path style="fill:#8585e2; stroke:none;" d="M133 78L134 79L133 78M135 79L136 80L135 79M137 80L138 81L137 80M139 81L140 82L139 81z"/>
<path style="fill:#c2c2f0; stroke:none;" d="M140 82L141 83L140 82z"/>
<path style="fill:#4a4ad2; stroke:none;" d="M141 82L142 83L141 82z"/>
<path style="fill:#c2c2f0; stroke:none;" d="M142 83L143 84L142 83z"/>
<path style="fill:#4a4ad2; stroke:none;" d="M143 83L144 84L143 83z"/>
<path style="fill:#c2c2f0; stroke:none;" d="M144 84L145 85L144 84z"/>
<path style="fill:#4a4ad2; stroke:none;" d="M145 84L146 85L145 84z"/>
<path style="fill:#8585e2; stroke:none;" d="M146 85L147 86L146 85z"/>
<path style="fill:#4a4ad2; stroke:none;" d="M147 86L148 87L147 86z"/>
<path style="fill:#8585e2; stroke:none;" d="M147 87L147 196L148 196L148 120L147 87M121 89L122 90L121 89M123 90L124 91L123 90z"/>
<path style="fill:#4a4ad2; stroke:none;" d="M124 91L125 92L124 91z"/>
<path style="fill:#c2c2f0; stroke:none;" d="M125 91L126 92L125 91z"/>
<path style="fill:#4a4ad2; stroke:none;" d="M126 92L127 93L126 92z"/>
<path style="fill:#c2c2f0; stroke:none;" d="M127 92L128 93L127 92z"/>
<path style="fill:#4a4ad2; stroke:none;" d="M128 93L129 94L128 93z"/>
<path style="fill:#c2c2f0; stroke:none;" d="M129 93L130 94L129 93z"/>
<path style="fill:#4a4ad2; stroke:none;" d="M78 94L79 95L78 94z"/>
<path style="fill:#c2c2f0; stroke:none;" d="M130 94L131 95L130 94z"/>
<path style="fill:#ffffff; stroke:none;" d="M78 95L78 174C78 181.772 74.9284 197.946 79.179 204.61C83.0275 210.643 97.3117 216.073 104 218L104 140C104 132.066 107.05 116.125 102.972 109.213C99.1815 102.788 84.7218 97.7985 78 95z"/>
<path style="fill:#c2c2f0; stroke:none;" d="M79 95L80 96L79 95z"/>
<path style="fill:#4a4ad2; stroke:none;" d="M80 95L81 96L80 95M77 96L77 203L78 203L78 129L77 96z"/>
<path style="fill:#c2c2f0; stroke:none;" d="M81 96L82 97L81 96z"/>
<path style="fill:#4a4ad2; stroke:none;" d="M82 96L83 97L82 96z"/>
<path style="fill:#c2c2f0; stroke:none;" d="M131 96L131 158L132 189L133 189C128.054 168.225 132 142.357 132 121C132 113.52 133.903 102.919 131 96M83 97L84 98L83 97z"/>
<path style="fill:#4a4ad2; stroke:none;" d="M84 97L85 98L84 97z"/>
<path style="fill:#8585e2; stroke:none;" d="M85 98L86 99L85 98M87 99L88 100L87 99M89 100L90 101L89 100M91 101L92 102L91 101z"/>
<path style="fill:#c2c2f0; stroke:none;" d="M92 102L93 103L92 102z"/>
<path style="fill:#4a4ad2; stroke:none;" d="M93 102L94 103L93 102z"/>
<path style="fill:#c2c2f0; stroke:none;" d="M94 103L95 104L94 103z"/>
<path style="fill:#4a4ad2; stroke:none;" d="M95 103L96 104L95 103z"/>
<path style="fill:#c2c2f0; stroke:none;" d="M96 104L97 105L96 104z"/>
<path style="fill:#4a4ad2; stroke:none;" d="M97 104L98 105L97 104z"/>
<path style="fill:#c2c2f0; stroke:none;" d="M98 105L99 106L98 105z"/>
<path style="fill:#4a4ad2; stroke:none;" d="M99 105L100 106L99 105z"/>
<path style="fill:#8585e2; stroke:none;" d="M100 106L101 107L100 106M102 107L103 108L102 107z"/>
<path style="fill:#c2c2f0; stroke:none;" d="M103 108L104 109L103 108z"/>
<path style="fill:#8585e2; stroke:none;" d="M104 109L105 110L104 109z"/>
<path style="fill:#c2c2f0; stroke:none;" d="M104 110L104 182L103 219C107.762 214.839 105 199.136 105 193L105 136C105 128.256 107.004 117.159 104 110z"/>
<path style="fill:#ffffff; stroke:none;" d="M0 151L0 268L117 268L117 267C72.3483 266.078 30.7051 229.129 12.2585 191C6.05319 178.174 5.44519 163.623 0 151M267 151C265.85 206.694 206.694 265.85 151 267L151 268L268 268L268 187L267 151z"/>
<path style="fill:#8585e2; stroke:none;" d="M174 165L175 166L174 165M176 166L177 167L176 166M178 167L179 168L178 167z"/>
<path style="fill:#4a4ad2; stroke:none;" d="M179 168L180 169L179 168z"/>
<path style="fill:#c2c2f0; stroke:none;" d="M180 168L181 169L180 168z"/>
<path style="fill:#4a4ad2; stroke:none;" d="M181 169L182 170L181 169z"/>
<path style="fill:#c2c2f0; stroke:none;" d="M182 169L183 170L182 169z"/>
<path style="fill:#4a4ad2; stroke:none;" d="M183 170L184 171L183 170z"/>
<path style="fill:#c2c2f0; stroke:none;" d="M184 170L185 171L184 170z"/>
<path style="fill:#4a4ad2; stroke:none;" d="M185 171L186 172L185 171z"/>
<path style="fill:#8585e2; stroke:none;" d="M187 172L188 173L187 172z"/>
<path style="fill:#4a4ad2; stroke:none;" d="M189 173L190 174L189 173M131 188L132 189L131 188M133 189L134 190L133 189z"/>
<path style="fill:#c2c2f0; stroke:none;" d="M134 189L135 190L134 189z"/>
<path style="fill:#4a4ad2; stroke:none;" d="M135 190L136 191L135 190z"/>
<path style="fill:#c2c2f0; stroke:none;" d="M136 190L137 191L136 190z"/>
<path style="fill:#4a4ad2; stroke:none;" d="M137 191L138 192L137 191z"/>
<path style="fill:#8585e2; stroke:none;" d="M139 192L140 193L139 192M141 193L142 194L141 193M143 194L144 195L143 194z"/>
<path style="fill:#c2c2f0; stroke:none;" d="M145 195L146 196L145 195M78 204L79 205L78 204z"/>
<path style="fill:#4a4ad2; stroke:none;" d="M78 205L79 206L78 205z"/>
<path style="fill:#8585e2; stroke:none;" d="M80 206L81 207L80 206z"/>
<path style="fill:#c2c2f0; stroke:none;" d="M82 207L83 208L82 207z"/>
<path style="fill:#4a4ad2; stroke:none;" d="M83 208L84 209L83 208z"/>
<path style="fill:#c2c2f0; stroke:none;" d="M84 208L85 209L84 208z"/>
<path style="fill:#4a4ad2; stroke:none;" d="M85 209L86 210L85 209z"/>
<path style="fill:#c2c2f0; stroke:none;" d="M86 209L87 210L86 209z"/>
<path style="fill:#4a4ad2; stroke:none;" d="M87 210L88 211L87 210z"/>
<path style="fill:#c2c2f0; stroke:none;" d="M88 210L89 211L88 210z"/>
<path style="fill:#4a4ad2; stroke:none;" d="M89 211L90 212L89 211z"/>
<path style="fill:#8585e2; stroke:none;" d="M91 212L92 213L91 212M93 213L94 214L93 213M95 214L96 215L95 214z"/>
<path style="fill:#c2c2f0; stroke:none;" d="M97 215L98 216L97 215z"/>
<path style="fill:#4a4ad2; stroke:none;" d="M98 216L99 217L98 216z"/>
<path style="fill:#c2c2f0; stroke:none;" d="M99 216L100 217L99 216z"/>
<path style="fill:#4a4ad2; stroke:none;" d="M100 217L101 218L100 217z"/>
<path style="fill:#c2c2f0; stroke:none;" d="M101 217L102 218L101 217z"/>
<path style="fill:#4a4ad2; stroke:none;" d="M102 218L103 219L102 218z"/>
</svg>
